<svg width="16" height="20" viewBox="0 0 16 20" fill="none" xmlns="http://www.w3.org/2000/svg">
<path d="M8.02992 11.3633C8.1373 11.3569 8.23943 11.3147 8.31992 11.2433L14.7199 5.48332C14.7692 5.44197 14.8097 5.39114 14.8389 5.33384C14.8682 5.27654 14.8856 5.21394 14.8902 5.14976C14.8948 5.08559 14.8864 5.02115 14.8656 4.96027C14.8448 4.89939 14.812 4.84333 14.7691 4.79539C14.7262 4.74745 14.6741 4.70862 14.6159 4.68122C14.5576 4.65382 14.4945 4.6384 14.4302 4.63588C14.3659 4.63335 14.3018 4.64377 14.2416 4.66652C14.1815 4.68927 14.1265 4.72389 14.0799 4.76831L7.99992 10.2383L1.91992 4.76831C1.87338 4.72389 1.81839 4.68927 1.75821 4.66652C1.69803 4.64377 1.63389 4.63334 1.5696 4.63587C1.50532 4.63839 1.44219 4.65382 1.38398 4.68122C1.32577 4.70862 1.27367 4.74745 1.23076 4.79539C1.18785 4.84333 1.15501 4.89939 1.1342 4.96027C1.11339 5.02115 1.10503 5.08559 1.10962 5.14976C1.11421 5.21394 1.13164 5.27654 1.1609 5.33384C1.19015 5.39114 1.23063 5.44197 1.27992 5.48332L7.67992 11.2433C7.72742 11.2855 7.78281 11.3178 7.84289 11.3384C7.90297 11.359 7.96654 11.3675 8.02992 11.3633Z" fill="black"/>
</svg>
