<svg width="130" height="25" viewBox="0 0 130 25" fill="none" xmlns="http://www.w3.org/2000/svg">
<path d="M16.7969 15.6875C16.7969 17.1146 16.5469 18.3646 16.0469 19.4375C15.5573 20.5 14.8802 21.3854 14.0156 22.0938C13.1615 22.8021 12.1562 23.3333 11 23.6875C9.85417 24.0417 8.61979 24.2188 7.29688 24.2188C6.78646 24.2188 6.22396 24.151 5.60938 24.0156C5.00521 23.8802 4.39062 23.7135 3.76562 23.5156C3.14062 23.3073 2.53646 23.0885 1.95312 22.8594C1.38021 22.6198 0.869792 22.3958 0.421875 22.1875L1.10938 15.75C1.99479 16.2812 2.97396 16.6875 4.04688 16.9688C5.13021 17.2396 6.19271 17.375 7.23438 17.375C7.43229 17.375 7.67188 17.3698 7.95312 17.3594C8.23438 17.3385 8.5 17.2917 8.75 17.2188C9.01042 17.1354 9.22917 17.0156 9.40625 16.8594C9.58333 16.7031 9.67188 16.4792 9.67188 16.1875C9.67188 15.9896 9.60938 15.8229 9.48438 15.6875C9.35938 15.5417 9.19792 15.4271 9 15.3438C8.80208 15.25 8.57812 15.1823 8.32812 15.1406C8.07812 15.0885 7.83333 15.0521 7.59375 15.0312C7.35417 15.0104 7.13021 15 6.92188 15C6.71354 15 6.54688 15 6.42188 15C5.52604 15 4.70833 14.8438 3.96875 14.5312C3.23958 14.2188 2.60938 13.7865 2.07812 13.2344C1.55729 12.6719 1.15104 12.0104 0.859375 11.25C0.567708 10.4792 0.421875 9.64583 0.421875 8.75C0.421875 7.52083 0.666667 6.42188 1.15625 5.45312C1.65625 4.47396 2.31771 3.64583 3.14062 2.96875C3.97396 2.28125 4.92708 1.75521 6 1.39062C7.07292 1.02604 8.18229 0.84375 9.32812 0.84375C9.83854 0.84375 10.3646 0.864583 10.9062 0.90625C11.4479 0.9375 11.9844 1 12.5156 1.09375C13.0573 1.1875 13.5833 1.30729 14.0938 1.45312C14.6042 1.59896 15.0885 1.78125 15.5469 2L14.9531 8.34375C14.2448 8.10417 13.5 7.90625 12.7188 7.75C11.9479 7.58333 11.1927 7.5 10.4531 7.5C10.3177 7.5 10.1406 7.50521 9.92188 7.51562C9.71354 7.51562 9.48958 7.53125 9.25 7.5625C9.02083 7.58333 8.78646 7.61979 8.54688 7.67188C8.30729 7.72396 8.09375 7.79688 7.90625 7.89062C7.71875 7.97396 7.56771 8.08854 7.45312 8.23438C7.33854 8.38021 7.28646 8.55208 7.29688 8.75C7.30729 8.97917 7.39062 9.16667 7.54688 9.3125C7.71354 9.44792 7.92188 9.55729 8.17188 9.64062C8.43229 9.71354 8.71354 9.76562 9.01562 9.79688C9.32812 9.82812 9.63542 9.84896 9.9375 9.85938C10.2396 9.85938 10.5208 9.85938 10.7812 9.85938C11.0417 9.84896 11.2552 9.85417 11.4219 9.875C12.2552 9.92708 13.0052 10.1042 13.6719 10.4062C14.3385 10.7083 14.901 11.1094 15.3594 11.6094C15.8281 12.1094 16.1823 12.7083 16.4219 13.4062C16.6719 14.0938 16.7969 14.8542 16.7969 15.6875ZM34.8975 1.65625L34.7412 8.28125L30.085 8.46875L28.8975 23.2812L22.3037 23.625L22.335 8.8125L17.6787 9.0625L17.8662 1.6875L34.8975 1.65625ZM54.2637 22.6562L46.5137 23.6562L45.5762 20.125H42.0137L41.2325 23.6562L33.2637 22.875L39.4825 2.0625L48.17 1.625L54.2637 22.6562ZM45.0137 15.3438L43.8262 9.90625L42.67 15.3438H45.0137ZM73.6925 2.84375L65.0988 14.8438L64.6925 24.625H57.2863L57.4738 14.9062L53.005 3.3125L60.9738 2.3125L62.2238 9.0625L66.1925 2.3125L73.6925 2.84375ZM82.4494 2L80.7306 23.2812L74.1369 23.625V2.4375L82.4494 2ZM105.753 1.59375L104.628 22.7812L96.4406 23.5312L92.0656 12.1875L91.3781 23.75H84.3469L84.9094 1.59375L92.7219 1.21875L98.1281 12.4688L98.3781 1.84375L105.753 1.59375ZM129.244 1.59375L128.119 22.7812L119.932 23.5312L115.557 12.1875L114.869 23.75H107.838L108.401 1.59375L116.213 1.21875L121.619 12.4688L121.869 1.84375L129.244 1.59375Z" fill="#999999"/>
</svg>
