<svg width="33" height="33" viewBox="0 0 33 33" fill="none" xmlns="http://www.w3.org/2000/svg">
<path d="M16.505 5.8519e-07C13.1309 -0.000897802 9.83766 1.03263 7.06912 2.96128C4.30058 4.88993 2.18987 7.62098 1.02147 10.7863C-0.14692 13.9516 -0.316822 17.3991 0.534669 20.664C1.38616 23.9288 3.21811 26.8542 5.78359 29.0457C6.20055 26.5043 7.50716 24.1937 9.47016 22.5265C11.4332 20.8593 13.9248 19.944 16.5002 19.944C19.0757 19.944 21.5673 20.8593 23.5303 22.5265C25.4933 24.1937 26.7999 26.5043 27.2169 29.0457C29.7817 26.8547 31.6134 23.9302 32.4652 20.6663C33.317 17.4023 33.1478 13.9557 31.9806 10.7908C30.8134 7.62588 28.7042 4.89476 25.9372 2.96538C23.1702 1.03599 19.8783 0.00105505 16.505 5.8519e-07ZM16.505 18.2813C15.4601 18.2823 14.4385 17.9733 13.5692 17.3935C12.7 16.8137 12.0223 15.9891 11.6218 15.024C11.2212 14.059 11.116 12.9968 11.3192 11.9719C11.5225 10.947 12.0252 10.0054 12.7637 9.26624C13.5022 8.52707 14.4433 8.02355 15.468 7.81935C16.4927 7.61516 17.555 7.71948 18.5204 8.11912C19.4858 8.51875 20.3111 9.19575 20.8916 10.0645C21.4722 10.9332 21.7821 11.9546 21.7821 12.9994C21.7809 14.3991 21.2246 15.7411 20.2354 16.7312C19.2462 17.7214 17.9046 18.2788 16.505 18.2813Z" fill="#334D10"/>
</svg>
